<svg viewBox="166.92 0 155.14999999999998 141.8181818181818" fill="none" xmlns="http://www.w3.org/2000/svg" style="max-height: 500px" width="155.14999999999998" height="141.8181818181818"><path opacity=".7" d="M309.657 52.4474C309.236 50.4027 308.815 48.4597 308.288 46.5176C305.709 36.7988 300.766 27.8233 293.875 20.3452C281.451 6.84951 264.823 0 243.77 0C222.718 0 206.094 6.74395 193.78 20.141C188.361 26.0479 184.179 32.9234 181.466 40.3836C180.117 44.0396 179.096 47.8022 178.414 51.6293C177.687 55.9209 177.337 60.2647 177.367 64.6139C177.367 66.1474 177.468 67.5783 177.577 69.1099C177.858 75.6876 179.099 82.1934 181.261 88.4327C184.004 96.2442 188.335 103.441 193.995 109.596C206.309 123.092 222.831 129.941 243.774 129.941C264.928 129.941 281.697 123.16 294.08 109.596C299.173 103.973 303.231 97.5404 306.078 90.58C308.511 84.5645 309.967 78.2182 310.393 71.7683V71.6706C310.494 71.5729 310.494 71.4663 310.393 71.4663C310.603 69.3161 310.709 67.2743 310.709 65.0254C310.637 60.8151 310.286 56.6137 309.657 52.4474V52.4474Z" fill="url(#paint0_linear)"/><path opacity=".68" d="M310.576 65.0244C310.576 67.1714 310.471 69.3184 310.26 71.4654C310.361 71.5631 310.361 71.6696 310.26 71.6696V71.7674C309.771 78.2085 308.318 84.5458 305.945 90.5791C303.153 97.5685 299.088 104.012 293.943 109.6C281.524 123.096 264.791 129.945 243.637 129.945C222.694 129.945 206.101 123.163 193.858 109.6C188.199 103.444 183.87 96.2478 181.128 88.4366C178.915 82.2101 177.674 75.6971 177.444 69.1138C177.344 67.5803 177.234 66.1484 177.234 64.6178C177.258 60.2705 177.61 55.9307 178.286 51.6333C178.968 47.8061 179.989 44.0435 181.339 40.3875C187.969 35.9893 203.755 29.3431 232.697 37.0136C245.742 40.5324 258.991 43.2977 272.373 45.2949C289.422 47.8508 301.945 47.9534 308.155 46.5216C308.681 48.4636 309.102 50.4067 309.524 52.3487V52.4465C310.257 56.6006 310.609 60.8098 310.576 65.0244V65.0244Z" fill="url(#paint1_linear)"/><path opacity=".82" d="M177.537 71.4672C177.437 71.5649 177.437 71.6714 177.537 71.6714V71.7692C178.026 78.2103 179.48 84.5476 181.853 90.5809C184.643 97.5683 188.708 104.01 193.85 109.597C206.269 123.093 223.003 129.942 244.156 129.942C265.099 129.942 281.692 123.16 293.936 109.597C299.596 103.442 303.926 96.2451 306.67 88.4336C308.882 82.207 310.124 75.694 310.353 69.1107C310.353 69.1107 295.619 51.7299 255.101 62.4645C242.055 65.9833 228.807 68.7486 215.425 70.7459C196.274 73.6135 182.803 73.4092 177.537 71.4672Z" fill="url(#paint2_linear)"/><path d="M305.944 90.5772C303.153 97.5647 299.089 104.006 293.946 109.593C281.527 123.089 264.899 129.938 243.64 129.938C222.697 129.938 206.104 123.157 193.861 109.593C188.2 103.438 183.87 96.2421 181.126 88.4309C181.126 88.4309 195.019 72.0724 233.011 82.1942C245.266 85.4768 257.706 88.0714 270.268 89.9654C288.479 92.6219 300.998 92.4176 305.944 90.5772Z" fill="url(#paint3_linear)"/><path d="M0.00439629 24.4999C-0.0530469 21.8315 0.452968 19.1799 1.49122 16.7088C2.52947 14.2378 4.07794 11.9996 6.04108 10.1323C7.92942 8.23601 10.1988 6.73695 12.7084 5.72815C15.218 4.71936 17.9142 4.22237 20.6297 4.26802H49.6058L57.2523 4.75671C68.7219 6.22279 77.777 10.3278 84.4173 16.974C87.6614 20.0655 90.2259 23.7644 91.9553 27.8469C93.6847 31.9293 94.5431 36.3103 94.4785 40.7244V43.0702C94.3798 43.5872 94.3126 44.1093 94.2772 44.634C93.7852 50.711 91.555 56.5336 87.8381 61.445L88.2406 61.8359L90.6552 63.3998L93.0699 64.9636L94.076 65.8432C101.521 71.7075 105.244 79.6243 105.244 89.5937C105.233 93.376 104.622 97.1342 103.433 100.736C102.263 104.285 100.495 107.62 98.2011 110.607C96.2732 113.163 94.082 115.521 91.6613 117.645C88.0324 120.608 83.871 122.894 79.3868 124.389C74.3533 125.975 69.0827 126.734 63.792 126.637H20.2273C17.5066 126.72 14.7988 126.24 12.2836 125.229C9.76843 124.218 7.50333 122.699 5.63863 120.772C1.8154 116.863 0.00439629 111.683 0.00439629 105.036V24.4999V24.4999ZM56.9444 43.5589C57.6221 43.0843 58.163 42.4486 58.5153 41.7127C58.8677 40.9768 59.0196 40.1654 58.9566 39.3561C58.9459 38.4751 58.7217 37.609 58.3021 36.8279C57.8826 36.0468 57.2796 35.3727 56.5419 34.8601C54.9554 33.6021 52.9547 32.9427 50.9077 33.0031H40.5508V45.8068H51.4168C53.4809 45.7419 55.4483 44.9418 56.9444 43.5589V43.5589ZM69.1184 90.1752C69.1847 88.3805 68.536 86.6301 67.3074 85.2883C66.7215 84.6637 66.0063 84.1666 65.2086 83.8297C64.411 83.4928 63.549 83.3237 62.6792 83.3335H40.5447V96.5282H62.5786C64.2325 96.5179 65.8184 95.8876 67.0055 94.7689C67.6901 94.2055 68.2353 93.4995 68.6007 92.7034C68.9661 91.9074 69.1424 91.0416 69.1164 90.1703L69.1184 90.1752Z" fill="url(#paint4_linear)"/><path d="M388.823 22.3122C388.787 19.7454 389.275 17.1972 390.26 14.815C391.244 12.4327 392.705 10.2637 394.558 8.43336C396.361 6.53655 398.557 5.03301 401.003 4.02211C403.448 3.0112 406.087 2.51594 408.744 2.56905C411.351 2.53132 413.937 3.01514 416.343 3.99039C418.749 4.96564 420.923 6.41146 422.729 8.23788C424.611 10.0115 426.099 12.1403 427.103 14.4935C428.106 16.8467 428.604 19.3744 428.564 21.9213V71.6623C428.564 77.3312 430.073 82.0226 433.092 85.7367C436.11 89.4507 440.336 91.6987 445.869 92.5784C447.298 92.8154 448.747 92.9136 450.196 92.8716C451.577 92.9068 452.959 92.8086 454.321 92.5784C459.854 91.6987 464.08 89.4507 467.098 85.8344C470.117 82.2181 471.626 77.5267 471.626 71.6623V22.019C471.577 19.4709 472.07 16.9404 473.074 14.5859C474.078 12.2314 475.572 10.1036 477.461 8.33562C479.309 6.5305 481.508 5.09981 483.929 4.12653C486.351 3.15325 488.947 2.65676 491.568 2.66585C494.189 2.67494 496.781 3.18944 499.196 4.1795C501.61 5.16956 503.798 6.61547 505.633 8.43336C507.502 10.272 508.973 12.4563 509.958 14.857C510.943 17.2578 511.422 19.8261 511.367 22.41V70.5872C511.367 85.5393 507.041 97.7566 498.388 107.239C489.736 116.72 477.26 122.682 460.76 125.125C459.296 125.395 457.818 125.591 456.333 125.712C454.193 125.914 452.044 126.012 449.894 126.005C448.183 126.005 446.372 125.907 444.561 125.809C442.701 125.726 440.85 125.497 439.028 125.125C422.628 122.682 410.052 116.72 401.5 107.337C392.948 97.954 388.622 85.6389 388.622 70.5872V22.3122H388.823Z" fill="url(#paint5_linear)"/><path d="M595.154 22.3084C595.094 18.3865 596.251 14.5378 598.474 11.2639C600.696 8.00248 603.89 5.47879 607.63 4.03126C609.987 3.06837 612.518 2.57003 615.075 2.56519C621.011 2.56519 626.645 5.49734 631.978 11.4594L675.739 61.3979V22.0151C675.733 19.4983 676.246 17.0059 677.248 14.6848C678.283 12.2825 679.825 10.1182 681.775 8.33175C683.604 6.53506 685.782 5.10885 688.183 4.13576C690.584 3.16267 693.159 2.66206 695.76 2.66292C698.367 2.62526 700.954 3.1091 703.36 4.08435C705.766 5.0596 707.939 6.50538 709.745 8.33175C711.637 10.1189 713.13 12.2641 714.134 14.6345C715.138 17.0049 715.63 19.5502 715.581 22.1129V106.647L715.279 110.556C714.478 114.982 712.001 118.957 708.337 121.699C704.716 124.521 700.202 126.04 695.559 125.999C693.791 126.012 692.029 125.782 690.327 125.315C688.519 124.844 686.79 124.119 685.196 123.165C683.33 121.992 681.638 120.578 680.166 118.962L634.996 65.7951V106.552C635.06 109.108 634.584 111.649 633.597 114.019C632.611 116.39 631.135 118.538 629.261 120.333C627.405 122.162 625.181 123.6 622.727 124.557C620.274 125.515 617.644 125.971 615.001 125.898C612.358 125.824 609.759 125.223 607.365 124.131C604.972 123.039 602.836 121.48 601.09 119.551C597.254 115.511 595.164 110.191 595.255 104.695V22.3084H595.154Z" fill="url(#paint6_linear)"/><path d="M810.038 26.3036C820.703 13.7931 834.788 6.2672 852.094 3.92148C856.591 3.27703 861.13 2.95037 865.676 2.94409C877.85 2.94409 887.609 5.38755 894.853 10.2745C901.292 14.575 904.512 19.7551 904.512 25.8149C904.599 29.3933 903.388 32.8876 901.091 35.6865C899.6 37.6422 897.675 39.2458 895.457 40.3779C893.225 41.3984 890.78 41.9003 888.314 41.844C886.091 41.8345 883.872 41.6712 881.673 41.3553C880.075 41.1424 878.494 40.8158 876.945 40.3779C874.53 39.4983 872.618 38.8141 871.21 38.3254C869.853 37.8159 868.432 37.4872 866.984 37.348C865.576 37.2503 863.664 37.0548 861.35 37.0548C855.157 36.9356 849.113 38.9043 844.246 42.6259C839.417 46.34 836.298 51.7156 834.788 58.655C834.48 60.4318 834.312 62.2289 834.285 64.0306C834.312 65.8323 834.48 67.6294 834.788 69.4062C837.505 83.5783 845.755 90.7132 859.237 90.7132C864.771 90.7132 871.411 89.4426 879.057 86.8037L880.768 86.315C882.842 85.8245 884.972 85.5945 887.106 85.6308C892.64 85.6308 896.966 87.3901 900.186 90.8109C902.95 93.5924 904.501 97.3048 904.512 101.171C904.387 104.897 903.127 108.503 900.89 111.532C899.202 113.871 897.088 115.891 894.652 117.494C891.413 119.633 887.894 121.343 884.189 122.576C878.353 124.824 871.31 125.899 863.161 125.899C858.882 125.895 854.61 125.568 850.383 124.922C838.935 123.268 828.16 118.641 819.194 111.532C815.587 108.629 812.285 105.388 809.334 101.855C799.876 89.9313 795.148 77.2253 795.148 63.8351C795.226 57.2465 796.521 50.725 798.971 44.5807C801.694 37.9827 805.425 31.8211 810.038 26.3036V26.3036Z" fill="url(#paint7_linear)"/><path d="M984.073 22.1095C983.989 19.4929 984.454 16.8871 985.44 14.4507C986.426 12.0144 987.912 9.79832 989.807 7.9374C991.683 6.09251 993.926 4.63836 996.4 3.66371C998.874 2.68905 1001.53 2.21435 1004.19 2.26858H1051.88C1054.1 2.25629 1056.29 2.6934 1058.31 3.55183C1060.34 4.41026 1062.16 5.67105 1063.66 7.25323C1065.29 8.84242 1066.57 10.7343 1067.44 12.8164C1068.3 14.8985 1068.73 17.1282 1068.69 19.3728C1068.71 21.6149 1068.28 23.8393 1067.41 25.9189C1066.55 27.9984 1065.27 29.8923 1063.66 31.4923C1062.12 33.1412 1060.24 34.4551 1058.14 35.3479C1056.04 36.2407 1053.77 36.6921 1051.48 36.6725H1024.12V47.1305H1046.65C1049.13 47.1092 1051.59 47.5646 1053.89 48.4704C1056.18 49.3762 1058.27 50.7146 1060.03 52.4084C1061.71 53.8306 1063.05 55.5904 1063.95 57.5653C1064.85 59.5403 1065.3 61.6828 1065.27 63.8437C1065.28 66.0674 1064.81 68.2684 1063.89 70.3052C1062.97 72.342 1061.62 74.1695 1059.93 75.6701C1056.4 78.8455 1051.77 80.6233 1046.95 80.6547H1024.12V91.2105H1050.17C1052.64 91.1578 1055.09 91.5798 1057.39 92.4521C1059.68 93.3244 1061.78 94.6298 1063.56 96.2929C1065.29 97.817 1066.68 99.6758 1067.63 101.75C1068.58 103.825 1069.08 106.07 1069.09 108.342C1069.1 110.614 1068.62 112.863 1067.69 114.945C1066.75 117.027 1065.38 118.897 1063.66 120.434C1060.22 123.71 1055.59 125.537 1050.78 125.517H1003.99C1000.13 125.492 996.363 124.296 993.228 122.096C989.849 119.785 987.2 116.603 985.582 112.908C984.548 110.525 984.001 107.969 983.972 105.383V22.1095H984.073Z" fill="url(#paint8_linear)"/><defs><linearGradient gradientUnits="userSpaceOnUse" y2="67.461" y1="0" x2="258.251" x1="244.037" id="paint0_linear"><stop stop-color="#fff"/><stop stop-color="#EEF1FF" offset=".475"/><stop stop-color="#ABE2FF" offset="1"/></linearGradient><linearGradient gradientUnits="userSpaceOnUse" y2="115.417" y1="30.801" x2="243.399" x1="239.906" id="paint1_linear"><stop stop-color="#fff"/><stop stop-color="#EEF1FF" offset=".337"/><stop stop-color="#4D22B5" offset="1"/></linearGradient><linearGradient gradientUnits="userSpaceOnUse" y2="130.136" y1="53.925" x2="249.98" x1="252.413" id="paint2_linear"><stop stop-color="#fff"/><stop stop-color="#EEF1FF" offset=".364"/><stop stop-color="#003CFF" offset="1"/></linearGradient><linearGradient gradientUnits="userSpaceOnUse" y2="149.135" y1="87.313" x2="238.875" x1="239.042" id="paint3_linear"><stop stop-color="#fff"/><stop stop-color="#EEF1FF" offset=".475"/><stop stop-color="#61A0FF" offset="1"/></linearGradient><linearGradient gradientUnits="userSpaceOnUse" y2="126.646" y1="4.265" x2="52.622" x1="52.622" id="paint4_linear"><stop stop-color="#fff"/><stop stop-color="#EEF1FF" offset=".475"/><stop stop-color="#fff" offset="1"/></linearGradient><linearGradient gradientUnits="userSpaceOnUse" y2="126.005" y1="2.565" x2="449.997" x1="449.997" id="paint5_linear"><stop stop-color="#fff"/><stop stop-color="#EEF1FF" offset=".475"/><stop stop-color="#fff" offset="1"/></linearGradient><linearGradient gradientUnits="userSpaceOnUse" y2="126" y1="2.565" x2="655.368" x1="655.368" id="paint6_linear"><stop stop-color="#fff"/><stop stop-color="#EEF1FF" offset=".475"/><stop stop-color="#fff" offset="1"/></linearGradient><linearGradient gradientUnits="userSpaceOnUse" y2="125.899" y1="2.944" x2="849.832" x1="849.832" id="paint7_linear"><stop stop-color="#fff"/><stop stop-color="#EEF1FF" offset=".475"/><stop stop-color="#fff" offset="1"/></linearGradient><linearGradient gradientUnits="userSpaceOnUse" y2="125.517" y1="2.264" x2="1026.53" x1="1026.53" id="paint8_linear"><stop stop-color="#fff"/><stop stop-color="#EEF1FF" offset=".475"/><stop stop-color="#fff" offset="1"/></linearGradient></defs></svg>